<svg width="26" height="27" viewBox="0 0 26 27" fill="none" xmlns="http://www.w3.org/2000/svg">
<g clip-path="url(#clip0_65_5748)">
<path d="M7.92188 0.703125C7.58469 0.703125 7.3125 0.975313 7.3125 1.3125V3.95312H5.89062C3.315 3.95312 1.21875 6.04938 1.21875 8.625V21.625C1.21875 23.965 2.96756 25.9578 5.28522 26.2584C5.31162 26.2625 5.33816 26.2643 5.36456 26.2643C5.66722 26.2643 5.92939 26.0411 5.96799 25.7323C6.01064 25.3992 5.77465 25.0922 5.44153 25.0496C3.72918 24.8282 2.4375 23.3556 2.4375 21.625V9.03125H23.5625V10.8594C23.5625 11.1966 23.8347 11.4688 24.1719 11.4688C24.5091 11.4688 24.7812 11.1966 24.7812 10.8594V8.625C24.7812 6.04938 22.685 3.95312 20.1094 3.95312H18.6875V1.3125C18.6875 0.975313 18.4153 0.703125 18.0781 0.703125C17.7409 0.703125 17.4688 0.975313 17.4688 1.3125V3.95312H8.53125V1.3125C8.53125 0.975313 8.25906 0.703125 7.92188 0.703125ZM5.89062 5.17188H20.1094C21.7323 5.17188 23.0953 6.29922 23.4629 7.8125H2.53708C2.90474 6.29922 4.26766 5.17188 5.89062 5.17188ZM18.0781 10.8594C13.8227 10.8594 10.3594 14.3227 10.3594 18.5781C10.3594 22.8336 13.8227 26.2969 18.0781 26.2969C22.3336 26.2969 25.7969 22.8336 25.7969 18.5781C25.7969 14.3227 22.3336 10.8594 18.0781 10.8594ZM18.0781 12.0781C21.6612 12.0781 24.5781 14.993 24.5781 18.5781C24.5781 22.1633 21.6612 25.0781 18.0781 25.0781C14.495 25.0781 11.5781 22.1633 11.5781 18.5781C11.5781 14.993 14.495 12.0781 18.0781 12.0781ZM18.0781 15.9375C17.7409 15.9375 17.4688 16.2097 17.4688 16.5469V20.6094C17.4688 20.9466 17.7409 21.2188 18.0781 21.2188C18.4153 21.2188 18.6875 20.9466 18.6875 20.6094V16.5469C18.6875 16.2097 18.4153 15.9375 18.0781 15.9375ZM8.50229 17.7644C8.38492 17.7704 8.26839 17.81 8.16785 17.8854C6.97957 18.7772 6.29688 20.1402 6.29688 21.625C6.29688 24.2006 8.39313 26.2969 10.9688 26.2969C11.2308 26.2969 11.4948 26.2745 11.7507 26.2318C12.0818 26.1749 12.3054 25.8623 12.2506 25.5292C12.1957 25.1961 11.8787 24.9725 11.5476 25.0293C11.3566 25.0618 11.1617 25.0781 10.9688 25.0781C9.06547 25.0781 7.51562 23.5283 7.51562 21.625C7.51562 20.5281 8.01949 19.5208 8.89902 18.8606C9.16917 18.6595 9.22191 18.2774 9.02081 18.0072C8.89513 17.8384 8.6979 17.7546 8.50229 17.7644Z" fill="black"/>
</g>
<defs>
<clipPath id="clip0_65_5748">
<rect width="26" height="26" fill="white" transform="translate(0 0.5)"/>
</clipPath>
</defs>
</svg>
