<svg width="28" height="28" viewBox="0 0 28 28" fill="none" xmlns="http://www.w3.org/2000/svg">
<g clip-path="url(#clip0_64_5663)">
<path d="M14.0013 0C6.26908 0 0.000793457 6.26728 0.000793457 13.9975C0.000793457 21.7317 6.26908 28 14.0013 28C21.7335 28 27.9998 21.7307 27.9998 13.9975C27.9998 6.26728 21.7335 0 14.0013 0ZM14.0013 26.5661C7.05912 26.5661 1.43469 20.9387 1.43469 13.9965C1.43469 7.05733 7.05912 1.43189 14.0013 1.43189C20.9415 1.43189 26.5669 7.05733 26.5669 13.9965C26.5659 20.9387 20.9405 26.5661 14.0013 26.5661Z" fill="#262A3C"/>
<path d="M15.4624 17.0225L16.0212 5.00659H12.0159L12.5728 17.0225H15.4624Z" fill="#262A3C"/>
<path d="M14.031 19.0251C12.8453 19.0251 12.0159 19.8406 12.0159 21.027C12.0159 22.1706 12.8211 23.0304 13.9859 23.0304H14.031C15.2393 23.0304 16.0212 22.1706 16.0212 21.027C16.0002 19.8406 15.2159 19.0251 14.031 19.0251Z" fill="#262A3C"/>
</g>
<defs>
<clipPath id="clip0_64_5663">
<rect width="28" height="28" fill="white"/>
</clipPath>
</defs>
</svg>
