<svg width="28" height="28" viewBox="0 0 28 28" fill="none" xmlns="http://www.w3.org/2000/svg">
<path d="M7.4375 0.347778C3.45625 0.347778 0.21875 3.58528 0.21875 7.56653C0.21875 11.5478 3.45625 14.7853 7.4375 14.7853C11.4188 14.7853 14.6562 11.5478 14.6562 7.56653C14.6562 3.58528 11.4188 0.347778 7.4375 0.347778ZM7.4375 1.66028C10.6947 1.66028 13.3438 4.30934 13.3438 7.56653C13.3438 10.8237 10.6947 13.4728 7.4375 13.4728C4.18031 13.4728 1.53125 10.8237 1.53125 7.56653C1.53125 4.30934 4.18031 1.66028 7.4375 1.66028ZM23.7211 3.50726C23.5532 3.50726 23.3855 3.57113 23.2576 3.6991C23.0016 3.95503 23.0016 4.37071 23.2576 4.62665L25.5391 6.90814H18.375C18.0119 6.90814 17.7188 7.20127 17.7188 7.56439C17.7188 7.92752 18.0119 8.22064 18.375 8.22064H25.5412L23.2597 10.5043C23.0038 10.7602 23.0038 11.1759 23.2597 11.4318C23.3888 11.5609 23.5548 11.6245 23.7233 11.6245C23.8917 11.6245 24.0604 11.5609 24.1873 11.4318L27.5911 8.02795C27.7136 7.90545 27.7834 7.7372 27.7834 7.56439C27.7834 7.38939 27.7136 7.22333 27.5911 7.10083L24.1851 3.6991C24.0572 3.57113 23.889 3.50726 23.7211 3.50726ZM7.4375 4.94153C7.07438 4.94153 6.78125 5.23465 6.78125 5.59778V9.53528C6.78125 9.8984 7.07438 10.1915 7.4375 10.1915C7.80062 10.1915 8.09375 9.8984 8.09375 9.53528V5.59778C8.09375 5.23465 7.80062 4.94153 7.4375 4.94153ZM20.5625 13.3438C16.5812 13.3438 13.3438 16.5812 13.3438 20.5625C13.3438 24.5438 16.5812 27.7812 20.5625 27.7812C24.5438 27.7812 27.7812 24.5438 27.7812 20.5625C27.7812 16.5812 24.5438 13.3438 20.5625 13.3438ZM20.5625 14.6562C23.8197 14.6562 26.4688 17.3053 26.4688 20.5625C26.4688 23.8197 23.8197 26.4688 20.5625 26.4688C17.3053 26.4688 14.6562 23.8197 14.6562 20.5625C14.6562 17.3053 17.3053 14.6562 20.5625 14.6562ZM4.27887 16.5032C4.11098 16.5032 3.94285 16.5671 3.81488 16.6951L0.411438 20.0989C0.288938 20.2214 0.21875 20.3875 0.21875 20.5625C0.21875 20.7375 0.288938 20.9036 0.411438 21.0261L3.81488 24.4299C3.94394 24.559 4.11043 24.6226 4.27887 24.6226C4.44731 24.6226 4.61556 24.559 4.74243 24.4299C4.99837 24.174 4.99837 23.7583 4.74243 23.5024L2.4588 21.2188H9.625C9.98812 21.2188 10.2812 20.9256 10.2812 20.5625C10.2812 20.1994 9.98812 19.9062 9.625 19.9062H2.4588L4.7403 17.6248C4.99842 17.3666 4.99837 16.951 4.74243 16.6951C4.61446 16.5671 4.44676 16.5032 4.27887 16.5032ZM20.5625 17.9375C20.1994 17.9375 19.9062 18.2306 19.9062 18.5938V22.5312C19.9062 22.8944 20.1994 23.1875 20.5625 23.1875C20.9256 23.1875 21.2188 22.8944 21.2188 22.5312V18.5938C21.2188 18.2306 20.9256 17.9375 20.5625 17.9375Z" fill="black"/>
</svg>
