<svg width="30" height="30" viewBox="0 0 30 30" fill="none" xmlns="http://www.w3.org/2000/svg">
<path d="M20.775 1.81876C20.3063 1.82579 19.7883 1.92892 19.1438 2.10001C17.2946 2.58751 6.65627 5.53126 6.65627 5.53126C6.63752 5.53595 6.61877 5.54298 6.60002 5.55001C4.91487 6.18517 3.85315 6.78282 3.20627 7.65001C2.56409 8.51251 2.42112 9.54845 2.41877 10.7813C2.41877 10.7883 2.41877 10.793 2.41877 10.8V11.175C2.41174 11.25 2.40002 11.325 2.40002 11.4V24.225C2.40002 26.0789 3.92112 27.6 5.77502 27.6H24.225C26.0789 27.6 27.6 26.0789 27.6 24.225V11.3063C27.6 9.39376 25.8891 7.80001 24 7.80001H6.00002C5.32737 7.80001 4.72268 7.9922 4.21877 8.30626C4.65471 7.76954 5.47737 7.26329 6.97502 6.69376C6.99143 6.68673 6.99612 6.68204 7.01252 6.67501C7.08049 6.65626 17.6555 3.7336 19.4438 3.26251C20.0391 3.10548 20.4844 3.02345 20.7938 3.01876C21.1031 3.01407 21.2485 3.06095 21.3188 3.11251C21.3891 3.16407 21.4477 3.26485 21.5063 3.50626C21.5649 3.74767 21.6 4.11564 21.6 4.59376V6.60001H22.8V4.59376C22.8 4.07345 22.7672 3.63282 22.6688 3.22501C22.5703 2.8172 22.3782 2.41642 22.0313 2.15626C21.6844 1.8961 21.2438 1.81173 20.775 1.81876ZM6.00002 9.00001H24C25.1696 9.00001 26.4 10.1625 26.4 11.3063V24.225C26.4 25.4297 25.4297 26.4 24.225 26.4H5.77502C4.56799 26.4 3.60002 25.432 3.60002 24.225V12.2813L3.61877 11.2875C3.65393 10.8797 3.86252 10.2984 4.25627 9.84376C4.68518 9.34689 5.27112 9.00001 6.00002 9.00001ZM23.1 16.2C22.2703 16.2 21.6 16.8703 21.6 17.7C21.6 18.5297 22.2703 19.2 23.1 19.2C23.9274 19.2 24.6 18.5297 24.6 17.7C24.6 16.8703 23.9274 16.2 23.1 16.2Z" fill="black"/>
</svg>
