<svg width="32" height="32" viewBox="0 0 32 32" fill="none" xmlns="http://www.w3.org/2000/svg">
<path d="M15.3594 1.91398C8.19532 1.71086 2.21095 7.38273 2.00782 14.5468C1.8047 21.7109 7.47657 27.703 14.6406 27.9062C21.8047 28.1015 27.7969 22.4374 28 15.2655C28.0391 13.7655 27.8125 12.3202 27.375 10.9687L25.7266 12.5234C25.9219 13.3905 26.0234 14.289 26 15.2187C25.8281 21.2812 20.7578 26.0702 14.6953 25.9062C8.63282 25.7343 3.83595 20.664 4.00001 14.6015C4.17189 8.53898 9.2422 3.74211 15.3047 3.90617C17.2891 3.96867 19.1328 4.55461 20.7188 5.53117L22.2188 4.1093C20.25 2.7968 17.9063 1.9843 15.3594 1.91398ZM25 5.58586L13 17.5859L9.70314 14.2968L9.00001 13.5859L7.58595 14.9999L8.29689 15.703L13 20.414L26.4141 6.99992L25 5.58586Z" fill="black"/>
</svg>
