<svg width="30" height="30" viewBox="0 0 30 30" fill="none" xmlns="http://www.w3.org/2000/svg">
<path d="M4.96379 12.5312C3.47808 12.5312 2.28125 13.7281 2.28125 15.2138V26.7693C2.28125 28.2551 3.47808 29.4519 4.96379 29.4519H25.5987C27.0844 29.4519 28.2812 28.2551 28.2812 26.7693V15.2138C28.2812 13.7281 27.0844 12.5312 25.5987 12.5312H4.96379ZM4.96379 13.7693H25.5987C26.4035 13.7693 27.0432 14.409 27.0432 15.2138V26.7693C27.0432 27.5741 26.4035 28.2138 25.5987 28.2138H4.96379C4.15903 28.2138 3.51935 27.5741 3.51935 26.7693V15.2138C3.51935 14.409 4.15903 13.7693 4.96379 13.7693ZM15.2812 16.8646C14.1867 16.8646 13.137 17.2994 12.363 18.0733C11.5891 18.8473 11.1543 19.897 11.1543 20.9916C11.1543 21.5335 11.261 22.0702 11.4684 22.5709C11.6758 23.0716 11.9798 23.5266 12.363 23.9098C12.7463 24.293 13.2012 24.597 13.7019 24.8044C14.2026 25.0118 14.7393 25.1186 15.2812 25.1186C15.8232 25.1186 16.3599 25.0118 16.8606 24.8044C17.3613 24.597 17.8162 24.293 18.1995 23.9098C18.5827 23.5266 18.8867 23.0716 19.0941 22.5709C19.3015 22.0702 19.4082 21.5335 19.4082 20.9916C19.4082 19.897 18.9734 18.8473 18.1995 18.0733C17.4255 17.2994 16.3758 16.8646 15.2812 16.8646Z" fill="black"/>
<path d="M14.5 11.2812C14.5 11.5574 14.7239 11.7812 15 11.7812C15.2761 11.7812 15.5 11.5574 15.5 11.2812H14.5ZM15.3536 0.927696C15.1583 0.732434 14.8417 0.732434 14.6464 0.927696L11.4645 4.10968C11.2692 4.30494 11.2692 4.62152 11.4645 4.81678C11.6597 5.01205 11.9763 5.01205 12.1716 4.81678L15 1.98836L17.8284 4.81678C18.0237 5.01205 18.3403 5.01205 18.5355 4.81678C18.7308 4.62152 18.7308 4.30494 18.5355 4.10968L15.3536 0.927696ZM15.5 11.2812V1.28125H14.5V11.2812H15.5Z" fill="black"/>
</svg>
